# File created by Blade
# Date/Time:  Fri Jan 16 19:00:24 2015
# Frame Rate: 120.000 fps
#------------------------------------------------------
:FULLY-SPECIFIED
:DEGREES
1689
root 18.304075 35.618698 -20.227885 -183.281338 -2.638214 -179.777882
Spine 5.945747 1.239517 -6.044056
Head 2.148335 -3.270590 11.107087
LeftShoulder -9.594978 -28.979886 15.725938
LeftArm 3.388235 -6.445605 -12.865371
LeftForeArm -2.997935 0.000000 7.031820
LeftHand -4.637004 0.000000 1.415169
LeftHandThumb1 -26.253704 0.000000 33.147579
RightShoulder -14.207806 -5.886812 5.082142
RightArm -6.222601 51.371000 31.354587
RightForeArm -34.419962 0.000000 41.130438
RightHand -14.633736 0.000000 2.157603
RightHandThumb1 -24.326973 -0.000000 -32.862282
LeftUpLeg 4.166276 2.807890 -8.499928
LeftLeg -2.396138 -0.000000 0.000000
LeftFoot -16.771007 27.782673 -7.489776
LeftToeBase 20.773226 -0.000000 -0.000000
RightUpLeg -62.707773 16.633160 6.138705
RightLeg 93.736876 -0.000000 -0.000000
RightFoot 27.535758 -37.703195 -12.280363
RightToeBase 21.429369 -0.000000 -0.000000
1690
root 18.300695 35.622762 -20.225110 -183.415611 -2.705100 -179.746843
Spine 6.049742 1.128308 -6.017849
Head 2.205537 -3.212460 11.164443
LeftShoulder -9.563364 -28.997618 15.687094
LeftArm 3.454273 -6.334777 -12.890747
LeftForeArm -2.948111 -0.000000 7.012108
LeftHand -4.705031 -0.000000 1.427712
LeftHandThumb1 -26.253704 0.000000 33.147579
RightShoulder -14.174428 -5.849994 5.067137
RightArm -6.311299 51.366114 31.299420
RightForeArm -34.323071 0.000000 41.226557
RightHand -14.580216 -0.000000 2.374796
RightHandThumb1 -24.326973 -0.000000 -32.862282
LeftUpLeg 4.278411 3.174177 -8.427297
LeftLeg -2.427793 -0.000000 0.000000
LeftFoot -16.718566 27.574135 -7.768894
LeftToeBase 21.385987 -0.000000 -0.000000
RightUpLeg -63.405114 16.314429 6.430194
RightLeg 93.935569 -0.000000 -0.000000
RightFoot 27.630645 -37.773937 -12.263163
RightToeBase 21.666546 -0.000000 -0.000000
1691
root 18.297314 35.626880 -20.221823 -183.528061 -2.788687 -179.709340
Spine 6.113832 1.022512 -5.979268
Head 2.296339 -3.209277 11.209370
LeftShoulder -9.469340 -29.053212 15.611118
LeftArm 3.464992 -6.180444 -12.884702
LeftForeArm -2.920164 -0.000000 6.992907
LeftHand -4.678656 -0.000000 1.387007
LeftHandThumb1 -26.253704 0.000000 33.147579
RightShoulder -14.208927 -5.853674 5.069919
RightArm -6.235508 51.424340 31.320856
RightForeArm -34.364031 0.000000 41.202466
RightHand -14.592723 -0.000000 2.287454
RightHandThumb1 -24.326973 -0.000000 -32.862282
LeftUpLeg 4.374425 3.539878 -8.350194
LeftLeg -2.473226 -0.000000 0.000000
LeftFoot -16.657590 27.379790 -8.070836
LeftToeBase 21.879779 -0.000000 -0.000000
RightUpLeg -64.107115 15.981134 6.723685
RightLeg 94.136125 -0.000000 -0.000000
RightFoot 27.733341 -37.786023 -12.224709
RightToeBase 21.346110 -0.000000 -0.000000
1692
root 18.294095 35.632319 -20.220368 -183.621690 -2.884960 -179.663619
Spine 6.147705 0.890357 -5.942650
Head 2.385634 -3.208710 11.255610
LeftShoulder -9.430948 -29.074212 15.562495
LeftArm 3.539648 -6.006155 -12.920014
LeftForeArm -2.923965 -0.000000 6.938035
LeftHand -4.754563 -0.000000 1.640350
LeftHandThumb1 -26.253704 0.000000 33.147579
RightShoulder -14.200056 -5.824526 5.069335
RightArm -6.289543 51.438976 31.266357
RightForeArm -34.276106 0.000000 41.292692
RightHand -14.517131 0.000000 2.451412
RightHandThumb1 -24.326973 -0.000000 -32.862282
LeftUpLeg 4.458743 3.865444 -8.265324
LeftLeg -2.510941 -0.000000 0.000000
LeftFoot -16.604305 27.152537 -8.486205
LeftToeBase 22.239256 -0.000000 -0.000000
RightUpLeg -64.804017 15.642239 7.018055
RightLeg 94.328011 -0.000000 -0.000000
RightFoot 27.967224 -37.816976 -12.271577
RightToeBase 21.431437 -0.000000 -0.000000
1693
root 18.291506 35.638018 -20.219691 -183.696303 -2.989989 -179.610257
Spine 6.156827 0.753645 -5.899489
Head 2.469729 -3.219087 11.295968
LeftShoulder -9.388278 -29.123061 15.502181
LeftArm 3.579692 -5.923422 -12.957267
LeftForeArm -2.892839 -0.000000 6.951543
LeftHand -4.746309 -0.000000 1.530071
LeftHandThumb1 -26.253704 0.000000 33.147579
RightShoulder -14.194026 -5.812294 5.098724
RightArm -6.332385 51.417591 31.160017
RightForeArm -34.256964 -0.000000 41.323560
RightHand -14.531709 0.000000 2.374217
RightHandThumb1 -24.326973 -0.000000 -32.862282
LeftUpLeg 4.511451 4.311641 -8.158157
LeftLeg -2.526472 -0.000000 0.000000
LeftFoot -16.544180 26.824983 -8.597155
LeftToeBase 22.726842 -0.000000 -0.000000
RightUpLeg -65.496019 15.258888 7.334326
RightLeg 94.504718 -0.000000 -0.000000
RightFoot 28.134106 -37.914082 -12.245645
RightToeBase 21.508191 -0.000000 -0.000000
1694
root 18.287002 35.644460 -20.217414 -183.748407 -3.103905 -179.558418
Spine 6.138168 0.572689 -5.853807
Head 2.609224 -3.166033 11.324613
LeftShoulder -9.372946 -29.152374 15.429869
LeftArm 3.612513 -5.779871 -12.964998
LeftForeArm -2.827284 -0.000000 6.946547
LeftHand -4.775101 -0.000000 1.623971
LeftHandThumb1 -26.253704 0.000000 33.147579
RightShoulder -14.182807 -5.794558 5.101652
RightArm -6.343516 51.426106 31.127284
RightForeArm -34.261028 0.000000 41.466565
RightHand -14.418380 -0.000000 2.516665
RightHandThumb1 -24.326973 -0.000000 -32.862282
LeftUpLeg 4.532109 4.824574 -8.056911
LeftLeg -2.512501 -0.000000 0.000000
LeftFoot -16.481960 26.365638 -8.701451
LeftToeBase 23.044311 -0.000000 -0.000000
RightUpLeg -66.194343 14.848062 7.633346
RightLeg 94.675228 -0.000000 -0.000000
RightFoot 28.374986 -38.055909 -12.290273
RightToeBase 21.950307 -0.000000 -0.000000
1695
root 18.282584 35.651925 -20.218414 -183.834781 -3.252729 -179.506205
Spine 6.159022 0.392437 -5.815838
Head 2.709562 -3.159413 11.350090
LeftShoulder -9.311336 -29.195214 15.352564
LeftArm 3.600620 -5.739501 -12.985792
LeftForeArm -2.641741 -0.000000 6.968561
LeftHand -4.689105 -0.000000 1.565495
LeftHandThumb1 -26.253704 0.000000 33.147579
RightShoulder -14.193698 -5.805968 5.139856
RightArm -6.315516 51.488786 31.086803
RightForeArm -34.327024 -0.000000 41.555807
RightHand -14.370645 0.000000 2.561350
RightHandThumb1 -24.326973 -0.000000 -32.862282
LeftUpLeg 4.598193 5.337851 -7.953176
LeftLeg -2.510654 -0.000000 0.000000
LeftFoot -16.403129 25.886691 -8.820033
LeftToeBase 23.177071 -0.000000 -0.000000
RightUpLeg -66.834600 14.389280 7.941890
RightLeg 94.858144 -0.000000 -0.000000
RightFoot 28.545851 -38.038741 -12.380409
RightToeBase 22.035894 -0.000000 -0.000000
1696
root 18.276047 35.658625 -20.218038 -183.910819 -3.413589 -179.462608
Spine 6.179070 0.198957 -5.785257
Head 2.774922 -3.146430 11.363839
LeftShoulder -9.263235 -29.211044 15.279826
LeftArm 3.617362 -5.668884 -13.036230
LeftForeArm -2.752018 -0.000000 7.018456
LeftHand -4.758883 -0.000000 1.544312
LeftHandThumb1 -26.253704 0.000000 33.147579
RightShoulder -14.165487 -5.740279 5.141933
RightArm -6.415700 51.432645 30.958292
RightForeArm -34.204264 -0.000000 41.656573
RightHand -14.377181 -0.000000 2.530902
RightHandThumb1 -24.326973 -0.000000 -32.862282
LeftUpLeg 4.675353 5.779211 -7.869094
LeftLeg -2.557058 -0.000000 0.000000
LeftFoot -16.305237 25.482673 -8.940791
LeftToeBase 23.004685 -0.000000 -0.000000
RightUpLeg -67.479802 13.897912 8.229631
RightLeg 95.024611 -0.000000 -0.000000
RightFoot 28.664574 -38.137548 -12.306996
RightToeBase 22.117170 -0.000000 -0.000000
1697
root 18.270324 35.665725 -20.217767 -183.994907 -3.577807 -179.422778
Spine 6.219270 0.016398 -5.768902
Head 2.829648 -3.164203 11.399437
LeftShoulder -9.213691 -29.262034 15.212902
LeftArm 3.629745 -5.595066 -13.074603
LeftForeArm -2.702282 0.000000 7.019097
LeftHand -4.781968 -0.000000 1.609649
LeftHandThumb1 -26.253704 0.000000 33.147579
RightShoulder -14.131599 -5.688556 5.154167
RightArm -6.519357 51.372442 30.837105
RightForeArm -34.215329 0.000000 41.762924
RightHand -14.372945 -0.000000 2.456268
RightHandThumb1 -24.326973 -0.000000 -32.862282
LeftUpLeg 4.738326 6.315715 -7.786968
LeftLeg -2.550472 -0.000000 0.000000
LeftFoot -16.207566 24.971337 -9.014902
LeftToeBase 22.955162 -0.000000 -0.000000
RightUpLeg -68.093469 13.403668 8.513009
RightLeg 95.209990 -0.000000 -0.000000
RightFoot 28.821418 -38.072105 -12.438683
RightToeBase 22.261984 -0.000000 -0.000000
